<?xml version="1.0" encoding="UTF-8" standalone="no"?>
<!-- Created with Inkscape (http://www.inkscape.org/) -->

<svg
   xmlns:dc="http://purl.org/dc/elements/1.1/"
   xmlns:cc="http://creativecommons.org/ns#"
   xmlns:rdf="http://www.w3.org/1999/02/22-rdf-syntax-ns#"
   xmlns:svg="http://www.w3.org/2000/svg"
   xmlns="http://www.w3.org/2000/svg"
   xmlns:sodipodi="http://sodipodi.sourceforge.net/DTD/sodipodi-0.dtd"
   xmlns:inkscape="http://www.inkscape.org/namespaces/inkscape"
   id="svg3004"
   version="1.1"
   inkscape:version="0.91+devel+osxmenu r12896"
   width="800"
   height="600"
   xml:space="preserve"
   sodipodi:docname="bearing_est_model.svg"><title
     id="title3277">Array Signal Processing Overview</title><metadata
     id="metadata3010"><rdf:RDF><cc:Work
         rdf:about=""><dc:format>image/svg+xml</dc:format><dc:type
           rdf:resource="http://purl.org/dc/dcmitype/StillImage" /><dc:title>Array Signal Processing Overview</dc:title><dc:date>Dec 5, 2012</dc:date><dc:creator><cc:Agent><dc:title>Saurav R. Tuladhar</dc:title></cc:Agent></dc:creator><dc:rights><cc:Agent><dc:title>CC</dc:title></cc:Agent></dc:rights><dc:publisher><cc:Agent><dc:title>Self</dc:title></cc:Agent></dc:publisher><dc:identifier /><dc:source>Self</dc:source><dc:subject><rdf:Bag><rdf:li>array</rdf:li><rdf:li>processing</rdf:li></rdf:Bag></dc:subject><cc:license
           rdf:resource="http://creativecommons.org/licenses/by/3.0/" /></cc:Work><cc:License
         rdf:about="http://creativecommons.org/licenses/by/3.0/"><cc:permits
           rdf:resource="http://creativecommons.org/ns#Reproduction" /><cc:permits
           rdf:resource="http://creativecommons.org/ns#Distribution" /><cc:requires
           rdf:resource="http://creativecommons.org/ns#Notice" /><cc:requires
           rdf:resource="http://creativecommons.org/ns#Attribution" /><cc:permits
           rdf:resource="http://creativecommons.org/ns#DerivativeWorks" /></cc:License></rdf:RDF></metadata><defs
     id="defs3008"><inkscape:path-effect
       effect="skeletal"
       id="path-effect5626"
       is_visible="true"
       pattern="M 0,5 C 0,2.24 2.24,0 5,0 7.76,0 10,2.24 10,5 10,7.76 7.76,10 5,10 2.24,10 0,7.76 0,5 Z"
       copytype="single_stretched"
       prop_scale="1"
       scale_y_rel="false"
       spacing="0"
       normal_offset="0"
       tang_offset="0"
       prop_units="false"
       vertical_pattern="false"
       fuse_tolerance="0" /><inkscape:path-effect
       effect="skeletal"
       id="path-effect5622"
       is_visible="true"
       pattern="M 0,5 C 0,2.24 2.24,0 5,0 7.76,0 10,2.24 10,5 10,7.76 7.76,10 5,10 2.24,10 0,7.76 0,5 Z"
       copytype="single_stretched"
       prop_scale="1"
       scale_y_rel="false"
       spacing="0"
       normal_offset="0"
       tang_offset="0"
       prop_units="false"
       vertical_pattern="false"
       fuse_tolerance="0" /><inkscape:path-effect
       effect="spiro"
       id="path-effect5620"
       is_visible="true" /><marker
       inkscape:stockid="Arrow2Lend"
       orient="auto"
       refY="0"
       refX="0"
       id="marker5272"
       style="overflow:visible"
       inkscape:isstock="true"><path
         id="path5034"
         style="fill:#000000;fill-opacity:1;fill-rule:evenodd;stroke:none;stroke-width:0.625;stroke-linejoin:round;stroke-opacity:1"
         d="M 8.7185878,4.0337352 -2.2072895,0.01601326 8.7185884,-4.0017078 c -1.7454984,2.3720609 -1.7354408,5.6174519 -6e-7,8.035443 z"
         transform="matrix(-1.1,0,0,-1.1,-1.1,0)"
         inkscape:connector-curvature="0" /></marker><inkscape:path-effect
       effect="skeletal"
       id="path-effect5008"
       is_visible="true"
       pattern="M 0,5 C 0,2.24 2.24,0 5,0 7.76,0 10,2.24 10,5 10,7.76 7.76,10 5,10 2.24,10 0,7.76 0,5 Z"
       copytype="single_stretched"
       prop_scale="1"
       scale_y_rel="false"
       spacing="0"
       normal_offset="0"
       tang_offset="0"
       prop_units="false"
       vertical_pattern="false"
       fuse_tolerance="0" /><inkscape:path-effect
       effect="spiro"
       id="path-effect5006"
       is_visible="true" /><inkscape:path-effect
       fuse_tolerance="0"
       vertical_pattern="false"
       prop_units="false"
       tang_offset="0"
       normal_offset="0"
       spacing="0"
       scale_y_rel="false"
       prop_scale="1"
       copytype="single_stretched"
       pattern="m 3772.6078,-1123.7964 c 0,-2.76 2.24,-5 5,-5 2.76,0 5,2.24 5,5 0,2.76 -2.24,5 -5,5 -2.76,0 -5,-2.24 -5,-5 z"
       is_visible="true"
       id="path-effect11096"
       effect="skeletal" /><inkscape:path-effect
       is_visible="true"
       id="path-effect11094"
       effect="spiro" /><inkscape:path-effect
       fuse_tolerance="0"
       vertical_pattern="false"
       prop_units="false"
       tang_offset="0"
       normal_offset="0"
       spacing="0"
       scale_y_rel="false"
       prop_scale="1"
       copytype="single_stretched"
       pattern="m 3761.7666,-906.97152 c 0,-2.76 2.24,-5 5,-5 2.76,0 5,2.24 5,5 0,2.76 -2.24,5 -5,5 -2.76,0 -5,-2.24 -5,-5 z"
       is_visible="true"
       id="path-effect11082"
       effect="skeletal" /><inkscape:path-effect
       is_visible="true"
       id="path-effect11080"
       effect="spiro" /><inkscape:path-effect
       fuse_tolerance="0"
       vertical_pattern="false"
       prop_units="false"
       tang_offset="0"
       normal_offset="0"
       spacing="0"
       scale_y_rel="false"
       prop_scale="1"
       copytype="single_stretched"
       pattern="m 5706.6282,-968.22964 c 0,-2.76 2.24,-5 5,-5 2.76,0 5,2.24 5,5 0,2.76 -2.24,5 -5,5 -2.76,0 -5,-2.24 -5,-5 z"
       is_visible="true"
       id="path-effect11057"
       effect="skeletal" /><inkscape:path-effect
       is_visible="true"
       id="path-effect11055"
       effect="spiro" /><inkscape:path-effect
       fuse_tolerance="0"
       vertical_pattern="false"
       prop_units="false"
       tang_offset="0"
       normal_offset="0"
       spacing="0"
       scale_y_rel="false"
       prop_scale="1"
       copytype="single_stretched"
       pattern="m 5811.3744,-850.54712 c 0,-2.76 2.24,-5 5,-5 2.76,0 5,2.24 5,5 0,2.76 -2.24,5 -5,5 -2.76,0 -5,-2.24 -5,-5 z"
       is_visible="true"
       id="path-effect11043"
       effect="skeletal" /><inkscape:path-effect
       is_visible="true"
       id="path-effect11041"
       effect="spiro" /><inkscape:path-effect
       effect="skeletal"
       id="path-effect11018"
       is_visible="true"
       pattern="M 0,5 C 0,2.24 2.24,0 5,0 7.76,0 10,2.24 10,5 10,7.76 7.76,10 5,10 2.24,10 0,7.76 0,5 Z"
       copytype="single_stretched"
       prop_scale="1"
       scale_y_rel="false"
       spacing="0"
       normal_offset="0"
       tang_offset="0"
       prop_units="false"
       vertical_pattern="false"
       fuse_tolerance="0" /><inkscape:path-effect
       effect="spiro"
       id="path-effect11016"
       is_visible="true" /><inkscape:path-effect
       effect="skeletal"
       id="path-effect11012"
       is_visible="true"
       pattern="M 0,5 C 0,2.24 2.24,0 5,0 7.76,0 10,2.24 10,5 10,7.76 7.76,10 5,10 2.24,10 0,7.76 0,5 Z"
       copytype="single_stretched"
       prop_scale="1"
       scale_y_rel="false"
       spacing="0"
       normal_offset="0"
       tang_offset="0"
       prop_units="false"
       vertical_pattern="false"
       fuse_tolerance="0" /><inkscape:path-effect
       effect="spiro"
       id="path-effect11010"
       is_visible="true" /><marker
       inkscape:isstock="true"
       style="overflow:visible"
       id="marker10650"
       refX="0"
       refY="0"
       orient="auto"
       inkscape:stockid="Arrow2Lstart"><path
         transform="matrix(1.1,0,0,1.1,1.1,0)"
         d="M 8.7185878,4.0337352 -2.2072895,0.01601326 8.7185884,-4.0017078 c -1.7454984,2.3720609 -1.7354408,5.6174519 -6e-7,8.035443 z"
         style="fill:#000000;fill-opacity:1;fill-rule:evenodd;stroke:#000000;stroke-width:0.625;stroke-linejoin:round;stroke-opacity:1"
         id="path10652"
         inkscape:connector-curvature="0" /></marker><marker
       inkscape:stockid="Arrow2Lstart"
       orient="auto"
       refY="0"
       refX="0"
       id="marker10473"
       style="overflow:visible"
       inkscape:isstock="true"><path
         id="path5047"
         style="fill:#000000;fill-opacity:1;fill-rule:evenodd;stroke:#000000;stroke-width:0.625;stroke-linejoin:round;stroke-opacity:1"
         d="M 8.7185878,4.0337352 -2.2072895,0.01601326 8.7185884,-4.0017078 c -1.7454984,2.3720609 -1.7354408,5.6174519 -6e-7,8.035443 z"
         transform="matrix(1.1,0,0,1.1,1.1,0)"
         inkscape:connector-curvature="0" /></marker><marker
       inkscape:stockid="Arrow2Mend"
       orient="auto"
       refY="0"
       refX="0"
       id="Arrow2Mend"
       style="overflow:visible"
       inkscape:isstock="true"><path
         id="path5056"
         style="fill:#000000;fill-opacity:1;fill-rule:evenodd;stroke:#000000;stroke-width:0.625;stroke-linejoin:round;stroke-opacity:1"
         d="M 8.7185878,4.0337352 -2.2072895,0.01601326 8.7185884,-4.0017078 c -1.7454984,2.3720609 -1.7354408,5.6174519 -6e-7,8.035443 z"
         transform="scale(-0.6)"
         inkscape:connector-curvature="0" /></marker><marker
       inkscape:stockid="Arrow1Send"
       orient="auto"
       refY="0"
       refX="0"
       id="Arrow1Send"
       style="overflow:visible"
       inkscape:isstock="true"><path
         id="path5044"
         d="M 0,0 5,-5 -12.5,0 5,5 0,0 Z"
         style="fill:#000000;fill-opacity:1;fill-rule:evenodd;stroke:#000000;stroke-width:1.00000003pt;stroke-opacity:1"
         transform="matrix(-0.2,0,0,-0.2,-1.2,0)"
         inkscape:connector-curvature="0" /></marker><marker
       inkscape:stockid="Arrow2Lend"
       orient="auto"
       refY="0"
       refX="0"
       id="marker4565"
       style="overflow:visible"
       inkscape:isstock="true"><path
         id="path4297"
         style="fill:#000000;fill-opacity:1;fill-rule:evenodd;stroke:#000000;stroke-width:0.625;stroke-linejoin:round;stroke-opacity:1"
         d="M 8.7185878,4.0337352 -2.2072895,0.01601326 8.7185884,-4.0017078 c -1.7454984,2.3720609 -1.7354408,5.6174519 -6e-7,8.035443 z"
         transform="matrix(-1.1,0,0,-1.1,-1.1,0)"
         inkscape:connector-curvature="0" /></marker><marker
       inkscape:stockid="Arrow1Lstart"
       orient="auto"
       refY="0"
       refX="0"
       id="marker4532"
       style="overflow:visible"
       inkscape:isstock="true"><path
         id="path4276"
         d="M 0,0 5,-5 -12.5,0 5,5 0,0 Z"
         style="fill:#000000;fill-opacity:1;fill-rule:evenodd;stroke:#000000;stroke-width:1.00000003pt;stroke-opacity:1"
         transform="matrix(0.8,0,0,0.8,10,0)"
         inkscape:connector-curvature="0" /></marker><marker
       inkscape:stockid="Arrow2Lend"
       orient="auto"
       refY="0"
       refX="0"
       id="Arrow2Lend"
       style="overflow:visible"><path
         id="path4036"
         style="fill-rule:evenodd;stroke-width:0.625;stroke-linejoin:round"
         d="M 8.7185878,4.0337352 -2.2072895,0.01601326 8.7185884,-4.0017078 c -1.7454984,2.3720609 -1.7354408,5.6174519 -6e-7,8.035443 z"
         transform="matrix(-1.1,0,0,-1.1,-1.1,0)"
         inkscape:connector-curvature="0" /></marker><marker
       inkscape:stockid="Arrow1Lstart"
       orient="auto"
       refY="0"
       refX="0"
       id="Arrow1Lstart"
       style="overflow:visible"><path
         id="path4015"
         d="M 0,0 5,-5 -12.5,0 5,5 0,0 Z"
         style="fill-rule:evenodd;stroke:#000000;stroke-width:1.00000003pt"
         transform="matrix(0.8,0,0,0.8,10,0)"
         inkscape:connector-curvature="0" /></marker><clipPath
       clipPathUnits="userSpaceOnUse"
       id="clipPath3020"><path
         d="m 0,1.07031 7530,0 0,5548.92999 -7530,0 L 0,1.07031 Z"
         id="path3022"
         inkscape:connector-curvature="0" /></clipPath><clipPath
       clipPathUnits="userSpaceOnUse"
       id="clipPath3034"><path
         d="m 0,1 0,5549 7530,0 L 7530,1 0,1 Z"
         id="path3036"
         inkscape:connector-curvature="0" /></clipPath><clipPath
       clipPathUnits="userSpaceOnUse"
       id="clipPath3040"><path
         d="m 0,1 0,5549 7530,0 L 7530,1 0,1 Z m 3086.28,186.594 -90.71,-30.235 11.97,-35.902 90.71,30.234 0,0 -77.48,-6.3 65.51,42.203 z"
         id="path3042"
         inkscape:connector-curvature="0"
         style="clip-rule:evenodd" /></clipPath><clipPath
       clipPathUnits="userSpaceOnUse"
       id="clipPath3050"><path
         d="m 0,1.07031 7530,0 0,5548.92999 -7530,0 L 0,1.07031 Z"
         id="path3052"
         inkscape:connector-curvature="0" /></clipPath><clipPath
       clipPathUnits="userSpaceOnUse"
       id="clipPath3060"><path
         d="m 0,1 0,5549 7530,0 L 7530,1 0,1 Z"
         id="path3062"
         inkscape:connector-curvature="0" /></clipPath><clipPath
       clipPathUnits="userSpaceOnUse"
       id="clipPath3066"><path
         d="m 0,1 0,5549 7530,0 L 7530,1 0,1 Z m 1946.79,1025.62 87.55,37.8 -15.11,34.64 -86.93,-37.79 0,0 76.85,12.59 -62.36,-47.24 z"
         id="path3068"
         inkscape:connector-curvature="0"
         style="clip-rule:evenodd" /></clipPath><clipPath
       clipPathUnits="userSpaceOnUse"
       id="clipPath3076"><path
         d="m 0,1 0,5549 7530,0 L 7530,1 0,1 Z"
         id="path3078"
         inkscape:connector-curvature="0" /></clipPath><clipPath
       clipPathUnits="userSpaceOnUse"
       id="clipPath3088"><path
         d="m 0,1 0,5549 7530,0 L 7530,1 0,1 Z"
         id="path3090"
         inkscape:connector-curvature="0" /></clipPath><clipPath
       clipPathUnits="userSpaceOnUse"
       id="clipPath3094"><path
         d="m 0,1 0,5549 7530,0 L 7530,1 0,1 Z m 2564.09,1331.75 34.64,-99.52 35.91,11.97 -34.65,100.15 0,0 6.93,-78.1 -42.83,65.5 z"
         id="path3096"
         inkscape:connector-curvature="0"
         style="clip-rule:evenodd" /></clipPath><clipPath
       clipPathUnits="userSpaceOnUse"
       id="clipPath3104"><path
         d="m 0,1 0,5549 7530,0 L 7530,1 0,1 Z"
         id="path3106"
         inkscape:connector-curvature="0" /></clipPath><clipPath
       clipPathUnits="userSpaceOnUse"
       id="clipPath3116"><path
         d="m 4082.78,850.879 c 0,-44.18 -35.82,-79.996 -80,-79.996 -44.18,0 -79.99,35.816 -79.99,79.996 0,44.18 35.81,80 79.99,80 44.18,0 80,-35.82 80,-80 z"
         id="path3118"
         inkscape:connector-curvature="0"
         style="clip-rule:evenodd" /></clipPath><clipPath
       clipPathUnits="userSpaceOnUse"
       id="clipPath3140"><path
         d="m 0,1 0,5549 7530,0 L 7530,1 0,1 Z"
         id="path3142"
         inkscape:connector-curvature="0" /></clipPath><clipPath
       clipPathUnits="userSpaceOnUse"
       id="clipPath3154"><path
         d="m 3742.63,850.879 c 0,-44.18 -35.81,-79.996 -79.99,-79.996 -44.18,0 -80,35.816 -80,79.996 0,44.18 35.82,80 80,80 44.18,0 79.99,-35.82 79.99,-80 z"
         id="path3156"
         inkscape:connector-curvature="0"
         style="clip-rule:evenodd" /></clipPath><clipPath
       clipPathUnits="userSpaceOnUse"
       id="clipPath3178"><path
         d="m 0,1 0,5549 7530,0 L 7530,1 0,1 Z"
         id="path3180"
         inkscape:connector-curvature="0" /></clipPath><clipPath
       clipPathUnits="userSpaceOnUse"
       id="clipPath3188"><path
         d="m 3345.8,850.879 c 0,-44.18 -35.82,-79.996 -80,-79.996 -44.18,0 -80,35.816 -80,79.996 0,44.18 35.82,80 80,80 44.18,0 80,-35.82 80,-80 z"
         id="path3190"
         inkscape:connector-curvature="0"
         style="clip-rule:evenodd" /></clipPath><clipPath
       clipPathUnits="userSpaceOnUse"
       id="clipPath3212"><path
         d="m 0,1 0,5549 7530,0 L 7530,1 0,1 Z"
         id="path3214"
         inkscape:connector-curvature="0" /></clipPath><clipPath
       clipPathUnits="userSpaceOnUse"
       id="clipPath3222"><path
         d="m 1418.3,850.879 c 0,-44.18 -35.82,-79.996 -80,-79.996 -44.18,0 -79.99,35.816 -79.99,79.996 0,44.18 35.81,80 79.99,80 44.18,0 80,-35.82 80,-80 z"
         id="path3224"
         inkscape:connector-curvature="0"
         style="clip-rule:evenodd" /></clipPath><clipPath
       clipPathUnits="userSpaceOnUse"
       id="clipPath3246"><path
         d="m 0,1 0,5549 7530,0 L 7530,1 0,1 Z"
         id="path3248"
         inkscape:connector-curvature="0" /></clipPath><clipPath
       clipPathUnits="userSpaceOnUse"
       id="clipPath3256"><path
         d="m 2330.4,850.879 c 0,-44.18 -35.82,-79.996 -80,-79.996 -44.18,0 -80,35.816 -80,79.996 0,44.18 35.82,80 80,80 44.18,0 80,-35.82 80,-80 z"
         id="path3258"
         inkscape:connector-curvature="0"
         style="clip-rule:evenodd" /></clipPath><clipPath
       clipPathUnits="userSpaceOnUse"
       id="clipPath3280"><path
         d="m 0,1 0,5549 7530,0 L 7530,1 0,1 Z"
         id="path3282"
         inkscape:connector-curvature="0" /></clipPath><clipPath
       clipPathUnits="userSpaceOnUse"
       id="clipPath3294"><path
         d="m 624.629,850.879 c 0,-44.18 -35.82,-79.996 -80,-79.996 -44.18,0 -79.996,35.816 -79.996,79.996 0,44.18 35.816,80 79.996,80 44.18,0 80,-35.82 80,-80 z"
         id="path3296"
         inkscape:connector-curvature="0"
         style="clip-rule:evenodd" /></clipPath><clipPath
       clipPathUnits="userSpaceOnUse"
       id="clipPath3318"><path
         d="m 0,1 0,5549 7530,0 L 7530,1 0,1 Z"
         id="path3320"
         inkscape:connector-curvature="0" /></clipPath><clipPath
       clipPathUnits="userSpaceOnUse"
       id="clipPath3332"><path
         d="m 0,1 0,5549 7530,0 L 7530,1 0,1 Z"
         id="path3334"
         inkscape:connector-curvature="0" /></clipPath><clipPath
       clipPathUnits="userSpaceOnUse"
       id="clipPath3338"><path
         d="m 0,1 0,5549 7530,0 L 7530,1 0,1 Z m 4099.16,1002.95 -74.33,-74.962 26.46,-26.457 74.95,74.328 0,0 -66.77,-40.312 39.69,67.403 z"
         id="path3340"
         inkscape:connector-curvature="0"
         style="clip-rule:evenodd" /></clipPath><clipPath
       clipPathUnits="userSpaceOnUse"
       id="clipPath3348"><path
         d="m 0,1 0,5549 7530,0 L 7530,1 0,1 Z"
         id="path3350"
         inkscape:connector-curvature="0" /></clipPath><clipPath
       clipPathUnits="userSpaceOnUse"
       id="clipPath3358"><path
         d="m 0,1 0,5549 7530,0 L 7530,1 0,1 Z"
         id="path3360"
         inkscape:connector-curvature="0" /></clipPath><clipPath
       clipPathUnits="userSpaceOnUse"
       id="clipPath3364"><path
         d="m 0,1 0,5549 7530,0 L 7530,1 0,1 Z m 6472.62,1232.23 -102.67,-25.83 8.82,-36.53 102.67,25.2 0,0 -77.48,0 68.66,37.16 z"
         id="path3366"
         inkscape:connector-curvature="0"
         style="clip-rule:evenodd" /></clipPath><clipPath
       clipPathUnits="userSpaceOnUse"
       id="clipPath3374"><path
         d="m 0,1 0,5549 7530,0 L 7530,1 0,1 Z"
         id="path3376"
         inkscape:connector-curvature="0" /></clipPath><clipPath
       clipPathUnits="userSpaceOnUse"
       id="clipPath3384"><path
         d="m 0,1 0,5549 7530,0 L 7530,1 0,1 Z"
         id="path3386"
         inkscape:connector-curvature="0" /></clipPath><clipPath
       clipPathUnits="userSpaceOnUse"
       id="clipPath3390"><path
         d="m 0,1 0,5549 7530,0 L 7530,1 0,1 Z m 3934.75,292.418 105.82,0 0,37.793 -105.82,0 0,0 75.59,-18.895 -75.59,-18.898 z m -3293.746,37.793 -105.824,0 0,-37.793 105.824,0 0,0 -75.586,18.898 75.586,18.895 z"
         id="path3392"
         inkscape:connector-curvature="0"
         style="clip-rule:evenodd" /></clipPath><clipPath
       clipPathUnits="userSpaceOnUse"
       id="clipPath3400"><path
         d="m 0,1 0,5549 7530,0 L 7530,1 0,1 Z"
         id="path3402"
         inkscape:connector-curvature="0" /></clipPath><clipPath
       clipPathUnits="userSpaceOnUse"
       id="clipPath3420"><path
         d="m 0,1 0,5549 7530,0 L 7530,1 0,1 Z"
         id="path3422"
         inkscape:connector-curvature="0" /></clipPath><clipPath
       clipPathUnits="userSpaceOnUse"
       id="clipPath3426"><path
         d="m 0,1 0,5549 7530,0 L 7530,1 0,1 Z m 3180.13,1029.4 95.12,0 0,37.8 -95.12,0 0,0 75.59,-18.9 -75.59,-18.9 z"
         id="path3428"
         inkscape:connector-curvature="0"
         style="clip-rule:evenodd" /></clipPath><clipPath
       clipPathUnits="userSpaceOnUse"
       id="clipPath3436"><path
         d="m 0,1 0,5549 7530,0 L 7530,1 0,1 Z"
         id="path3438"
         inkscape:connector-curvature="0" /></clipPath><clipPath
       clipPathUnits="userSpaceOnUse"
       id="clipPath3448"><path
         d="m 0,1 0,5549 7530,0 L 7530,1 0,1 Z"
         id="path3450"
         inkscape:connector-curvature="0" /></clipPath><clipPath
       clipPathUnits="userSpaceOnUse"
       id="clipPath3454"><path
         d="m 0,1 0,5549 7530,0 L 7530,1 0,1 Z m 1789.31,421.547 -74.33,-74.957 26.46,-26.457 74.96,74.328 0,0 -66.77,-40.313 39.68,67.399 z"
         id="path3456"
         inkscape:connector-curvature="0"
         style="clip-rule:evenodd" /></clipPath><clipPath
       clipPathUnits="userSpaceOnUse"
       id="clipPath3464"><path
         d="m 0,1 0,5549 7530,0 L 7530,1 0,1 Z"
         id="path3466"
         inkscape:connector-curvature="0" /></clipPath><clipPath
       clipPathUnits="userSpaceOnUse"
       id="clipPath3478"><path
         d="m 0,1 0,5549 7530,0 L 7530,1 0,1 Z"
         id="path3480"
         inkscape:connector-curvature="0" /></clipPath><clipPath
       clipPathUnits="userSpaceOnUse"
       id="clipPath3484"><path
         d="m 0,1 0,5549 7530,0 L 7530,1 0,1 Z m 6316.4,2647.61 -93.85,-49.13 17.64,-33.38 93.85,49.13 0,0 -75.59,-18.9 57.95,52.28 z"
         id="path3486"
         inkscape:connector-curvature="0"
         style="clip-rule:evenodd" /></clipPath><clipPath
       clipPathUnits="userSpaceOnUse"
       id="clipPath3494"><path
         d="m 0,1 0,5549 7530,0 L 7530,1 0,1 Z"
         id="path3496"
         inkscape:connector-curvature="0" /></clipPath><clipPath
       clipPathUnits="userSpaceOnUse"
       id="clipPath3504"><path
         d="m 0,1 0,5549 7530,0 L 7530,1 0,1 Z"
         id="path3506"
         inkscape:connector-curvature="0" /></clipPath><clipPath
       clipPathUnits="userSpaceOnUse"
       id="clipPath3510"><path
         d="m 0,1 0,5549 7530,0 L 7530,1 0,1 Z m 1094.53,1002.95 -74.33,-74.962 26.46,-26.457 74.96,74.328 0,0 -66.77,-40.312 39.68,67.403 z"
         id="path3512"
         inkscape:connector-curvature="0"
         style="clip-rule:evenodd" /></clipPath><clipPath
       clipPathUnits="userSpaceOnUse"
       id="clipPath3520"><path
         d="m 0,1 0,5549 7530,0 L 7530,1 0,1 Z"
         id="path3522"
         inkscape:connector-curvature="0" /></clipPath><clipPath
       clipPathUnits="userSpaceOnUse"
       id="clipPath3530"><path
         d="m 0,1 0,5549 7530,0 L 7530,1 0,1 Z"
         id="path3532"
         inkscape:connector-curvature="0" /></clipPath><clipPath
       clipPathUnits="userSpaceOnUse"
       id="clipPath3536"><path
         d="m 0,1 0,5549 7530,0 L 7530,1 0,1 Z m 1310.59,1038.85 -95.12,0 0,-37.8 95.12,0 0,0 -75.59,18.9 75.59,18.9 z"
         id="path3538"
         inkscape:connector-curvature="0"
         style="clip-rule:evenodd" /></clipPath><clipPath
       clipPathUnits="userSpaceOnUse"
       id="clipPath3546"><path
         d="m 0,1 0,5549 7530,0 L 7530,1 0,1 Z"
         id="path3548"
         inkscape:connector-curvature="0" /></clipPath><clipPath
       clipPathUnits="userSpaceOnUse"
       id="clipPath3558"><path
         d="m 0,1 0,5549 7530,0 L 7530,1 0,1 Z"
         id="path3560"
         inkscape:connector-curvature="0" /></clipPath><clipPath
       clipPathUnits="userSpaceOnUse"
       id="clipPath3564"><path
         d="m 0,1 0,5549 7530,0 L 7530,1 0,1 Z m 1376.1,1541.51 66.77,67.4 -26.46,26.46 -67.4,-66.77 0,0 67.4,39.68 -40.31,-66.77 z m -501.401,-447.23 -66.769,-67.4 26.453,-26.45 67.402,66.77 0,0 -66.769,-40.32 39.683,67.4 z"
         id="path3566"
         inkscape:connector-curvature="0"
         style="clip-rule:evenodd" /></clipPath><clipPath
       clipPathUnits="userSpaceOnUse"
       id="clipPath3574"><path
         d="m 0,1 0,5549 7530,0 L 7530,1 0,1 Z"
         id="path3576"
         inkscape:connector-curvature="0" /></clipPath><clipPath
       clipPathUnits="userSpaceOnUse"
       id="clipPath3590"><path
         d="m 0,1 0,5549 7530,0 L 7530,1 0,1 Z"
         id="path3592"
         inkscape:connector-curvature="0" /></clipPath><clipPath
       clipPathUnits="userSpaceOnUse"
       id="clipPath3596"><path
         d="m 0,1 0,5549 7530,0 L 7530,1 0,1 Z m 3372.25,4691.01 -12.6,-105.19 37.8,-4.41 12.6,105.19 0,0 -27.72,-73.07 -10.08,77.48 z"
         id="path3598"
         inkscape:connector-curvature="0"
         style="clip-rule:evenodd" /></clipPath><clipPath
       clipPathUnits="userSpaceOnUse"
       id="clipPath3606"><path
         d="m 0,1 0,5549 7530,0 L 7530,1 0,1 Z"
         id="path3608"
         inkscape:connector-curvature="0" /></clipPath><clipPath
       clipPathUnits="userSpaceOnUse"
       id="clipPath3616"><path
         d="m 0,1 0,5549 7530,0 L 7530,1 0,1 Z"
         id="path3618"
         inkscape:connector-curvature="0" /></clipPath><clipPath
       clipPathUnits="userSpaceOnUse"
       id="clipPath3622"><path
         d="m 0,1 0,5549 7530,0 L 7530,1 0,1 Z m 581.793,4105.83 47.242,-94.48 34.016,16.38 -47.242,95.11 0,0 17.007,-76.22 -51.023,59.21 z"
         id="path3624"
         inkscape:connector-curvature="0"
         style="clip-rule:evenodd" /></clipPath><clipPath
       clipPathUnits="userSpaceOnUse"
       id="clipPath3632"><path
         d="m 0,1 0,5549 7530,0 L 7530,1 0,1 Z"
         id="path3634"
         inkscape:connector-curvature="0" /></clipPath><inkscape:perspective
       id="perspective10"
       inkscape:persp3d-origin="372.04724 : 350.78739 : 1"
       inkscape:vp_z="744.09448 : 526.18109 : 1"
       inkscape:vp_y="0 : 1000 : 0"
       inkscape:vp_x="0 : 526.18109 : 1"
       sodipodi:type="inkscape:persp3d" /><clipPath
       clipPathUnits="userSpaceOnUse"
       id="clipPath3542"><path
         inkscape:connector-curvature="0"
         d="M 0,555 753,555 753,0.105 0,0.105 0,555 Z"
         id="path3544" /></clipPath><clipPath
       clipPathUnits="userSpaceOnUse"
       id="clipPath3550"><path
         inkscape:connector-curvature="0"
         d="M 0,0 753,0 753,555 0,555 0,0 Z"
         id="path3552" /></clipPath><inkscape:path-effect
       effect="spiro"
       id="path-effect11016-8"
       is_visible="true" /><inkscape:path-effect
       effect="skeletal"
       id="path-effect11018-5"
       is_visible="true"
       pattern="M 0,5 C 0,2.24 2.24,0 5,0 7.76,0 10,2.24 10,5 10,7.76 7.76,10 5,10 2.24,10 0,7.76 0,5 Z"
       copytype="single_stretched"
       prop_scale="1"
       scale_y_rel="false"
       spacing="0"
       normal_offset="0"
       tang_offset="0"
       prop_units="false"
       vertical_pattern="false"
       fuse_tolerance="0" /><inkscape:path-effect
       effect="spiro"
       id="path-effect11016-3"
       is_visible="true" /><inkscape:path-effect
       effect="skeletal"
       id="path-effect11018-3"
       is_visible="true"
       pattern="M 0,5 C 0,2.24 2.24,0 5,0 7.76,0 10,2.24 10,5 10,7.76 7.76,10 5,10 2.24,10 0,7.76 0,5 Z"
       copytype="single_stretched"
       prop_scale="1"
       scale_y_rel="false"
       spacing="0"
       normal_offset="0"
       tang_offset="0"
       prop_units="false"
       vertical_pattern="false"
       fuse_tolerance="0" /><inkscape:path-effect
       effect="spiro"
       id="path-effect11010-6"
       is_visible="true" /><inkscape:path-effect
       effect="skeletal"
       id="path-effect11012-6"
       is_visible="true"
       pattern="M 0,5 C 0,2.24 2.24,0 5,0 7.76,0 10,2.24 10,5 10,7.76 7.76,10 5,10 2.24,10 0,7.76 0,5 Z"
       copytype="single_stretched"
       prop_scale="1"
       scale_y_rel="false"
       spacing="0"
       normal_offset="0"
       tang_offset="0"
       prop_units="false"
       vertical_pattern="false"
       fuse_tolerance="0" /><inkscape:path-effect
       effect="spiro"
       id="path-effect11010-1"
       is_visible="true" /><inkscape:path-effect
       effect="skeletal"
       id="path-effect11012-9"
       is_visible="true"
       pattern="M 0,5 C 0,2.24 2.24,0 5,0 7.76,0 10,2.24 10,5 10,7.76 7.76,10 5,10 2.24,10 0,7.76 0,5 Z"
       copytype="single_stretched"
       prop_scale="1"
       scale_y_rel="false"
       spacing="0"
       normal_offset="0"
       tang_offset="0"
       prop_units="false"
       vertical_pattern="false"
       fuse_tolerance="0" /></defs><sodipodi:namedview
     pagecolor="#dcdcdc"
     bordercolor="#666666"
     borderopacity="1"
     objecttolerance="10"
     gridtolerance="10"
     guidetolerance="10"
     inkscape:pageopacity="0"
     inkscape:pageshadow="2"
     inkscape:window-width="1276"
     inkscape:window-height="755"
     id="namedview3006"
     showgrid="true"
     inkscape:zoom="0.73792264"
     inkscape:cx="567.48703"
     inkscape:cy="97.220358"
     inkscape:window-x="0"
     inkscape:window-y="23"
     inkscape:window-maximized="0"
     inkscape:current-layer="g3012"
     showguides="true"
     inkscape:guide-bbox="true"
     borderlayer="false"><sodipodi:guide
       position="749.34346,66.118541"
       orientation="0,1"
       id="guide5020" /><inkscape:grid
       type="xygrid"
       id="grid4740" /></sodipodi:namedview><g
     id="g3012"
     inkscape:groupmode="layer"
     inkscape:label="ULA"
     transform="matrix(1.25,0,0,-1.25,0,600)"><g
       id="g3014"
       transform="scale(0.1)" /><path
       style="fill:none;fill-rule:evenodd;stroke:#000000;stroke-width:1.6;stroke-linecap:butt;stroke-linejoin:miter;stroke-miterlimit:4;stroke-dasharray:none;stroke-opacity:1"
       d="m 80,80.794416 c 480,0 480,0 480,0"
       id="path4736"
       inkscape:connector-curvature="0" /><ellipse
       style="opacity:1;fill:#000000;fill-opacity:1;fill-rule:nonzero;stroke:#000000;stroke-width:1.63286877;stroke-linecap:round;stroke-miterlimit:4;stroke-dasharray:none;stroke-dashoffset:0;stroke-opacity:1"
       id="path4738-1"
       cx="71.843674"
       cy="-79.979996"
       inkscape:transform-center-x="485.35818"
       inkscape:transform-center-y="-260.86954"
       transform="scale(1,-1)"
       rx="10.968546"
       ry="11.160194" /><ellipse
       style="opacity:1;fill:#000000;fill-opacity:1;fill-rule:nonzero;stroke:#000000;stroke-width:1.63286877;stroke-linecap:round;stroke-miterlimit:4;stroke-dasharray:none;stroke-dashoffset:0;stroke-opacity:1"
       id="path4738-1-5"
       cx="319.57529"
       cy="-79.97541"
       inkscape:transform-center-x="485.35818"
       inkscape:transform-center-y="-260.86954"
       rx="10.968546"
       ry="11.160194"
       transform="scale(1,-1)" /><ellipse
       style="opacity:1;fill:#000000;fill-opacity:1;fill-rule:nonzero;stroke:#000000;stroke-width:1.63286877;stroke-linecap:round;stroke-miterlimit:4;stroke-dasharray:none;stroke-dashoffset:0;stroke-opacity:1"
       id="path4738-1-3"
       cx="559.84369"
       cy="-79.984581"
       inkscape:transform-center-x="485.35818"
       inkscape:transform-center-y="-260.86954"
       rx="10.968546"
       ry="11.160194"
       transform="scale(1,-1)" /><ellipse
       style="opacity:1;fill:#000000;fill-opacity:1;fill-rule:nonzero;stroke:#000000;stroke-width:1.63286877;stroke-linecap:round;stroke-miterlimit:4;stroke-dasharray:none;stroke-dashoffset:0;stroke-opacity:1"
       id="path4738-1-8"
       cx="200.18149"
       cy="-80.522057"
       inkscape:transform-center-x="485.35818"
       inkscape:transform-center-y="-260.86954"
       rx="10.968546"
       ry="11.160194"
       transform="scale(1,-1)" /><ellipse
       style="opacity:1;fill:#000000;fill-opacity:1;fill-rule:nonzero;stroke:#000000;stroke-width:1.63286877;stroke-linecap:round;stroke-miterlimit:4;stroke-dasharray:none;stroke-dashoffset:0;stroke-opacity:1"
       id="path4738-1-0"
       cx="439.86203"
       cy="-80.121391"
       inkscape:transform-center-x="485.35818"
       inkscape:transform-center-y="-260.86954"
       rx="10.968546"
       ry="11.160194"
       transform="scale(1,-1)" /></g></svg>